<?xml version="1.0" encoding="iso-8859-1"?>
<!-- Generator: Adobe Illustrator 18.1.1, SVG Export Plug-In . SVG Version: 6.00 Build 0)  -->
<svg version="1.1" id="Capa_1" xmlns="http://www.w3.org/2000/svg" xmlns:xlink="http://www.w3.org/1999/xlink" x="0px" y="0px"
	 viewBox="0 0 113.335 113.335" style="enable-background:new 0 0 113.335 113.335;" xml:space="preserve">
<g>
	<path style="fill:#010002;" d="M38.308,7.924l-4.996,0.004V0.011L79.977,0v7.916l-4.996-0.004V5L38.312,5.01L38.308,7.924z
		 M90.717,24.58l0.021,78.749c0,2.759-2.237,4.996-4.996,5h-4.903l0.004,1.457c-0.004,1.961-1.578,3.543-3.536,3.543
		c-1.965,0-3.536-1.582-3.543-3.543v-1.46l-34.167,0.011v1.457c0,1.961-1.578,3.543-3.532,3.543c-1.968,0-3.547-1.578-3.547-3.543
		l0.004-1.457h-4.899c-2.759,0-5-2.237-4.996-4.996L22.597,24.59c0-2.759,2.237-5,4.996-5.003h5.733v-7.079l4.996-0.004l0.004,7.083
		l36.669-0.011l-0.007-7.079h5l0.007,7.079h5.73C88.48,19.576,90.717,21.817,90.717,24.58z M79.025,42.356l-44.739,0.011
		l0.018,54.13h3.582l-0.021-50.548l37.582-0.014l0.014,50.551h3.586L79.025,42.356z"/>
</g>
<g>
</g>
<g>
</g>
<g>
</g>
<g>
</g>
<g>
</g>
<g>
</g>
<g>
</g>
<g>
</g>
<g>
</g>
<g>
</g>
<g>
</g>
<g>
</g>
<g>
</g>
<g>
</g>
<g>
</g>
</svg>
