<?xml version="1.0" encoding="iso-8859-1"?>
<!-- Generator: Adobe Illustrator 18.1.1, SVG Export Plug-In . SVG Version: 6.00 Build 0)  -->
<svg version="1.1" id="Capa_1" xmlns="http://www.w3.org/2000/svg" xmlns:xlink="http://www.w3.org/1999/xlink" x="0px" y="0px"
	 viewBox="0 0 297.783 297.783" style="enable-background:new 0 0 297.783 297.783;" xml:space="preserve">
<g>
	<g>
		<path style="fill:#010002;" d="M100.674,35.305c2.676-0.413,5.385-0.761,8.159-1.023c2.676-0.256,5.401-0.435,8.159-0.577V16.317
			h66.28V34.25c2.758,0.228,5.477,0.522,8.159,0.881c2.768,0.375,5.483,0.832,8.159,1.376V13.598c0-7.5-6.097-13.598-13.598-13.598
			h-71.72c-7.5,0-13.598,6.097-13.598,13.598V35.305z"/>
		<path style="fill:#010002;" d="M199.584,42.12c-2.665-0.582-5.39-1.044-8.159-1.447c-2.676-0.386-5.39-0.713-8.159-0.957
			c-10.873-0.963-22.414-0.968-34.375-0.968c-4.27,0-8.49-0.022-12.64-0.022c-6.603,0-13.027,0.076-19.26,0.392
			c-2.763,0.141-5.488,0.332-8.159,0.587c-2.768,0.267-5.488,0.609-8.159,1.044C59.86,47.352,31.441,75.277,31.441,192.135
			c0,45.481,15.17,67.526,39.248,78.203v3.193v2.709v16.551c0,2.758,2.235,4.993,4.993,4.993h21.278
			c2.758,0,4.993-2.235,4.993-4.993v-8.909v-2.649v-2.953c14.381,1.784,30.247,2.023,46.939,2.023
			c17.34,0,33.787-0.267,48.603-2.246v2.981v2.643v9.105c0,2.758,2.235,4.993,4.993,4.993h21.278c2.758,0,4.993-2.235,4.993-4.993
			v-17.291v-2.725v-3.193c23.111-10.954,37.584-33.015,37.584-77.436C266.343,81.684,239.071,50.774,199.584,42.12z M69.204,223.649
			c0-141.165,30.105-151.353,79.682-151.353s79.682,10.187,79.682,151.353c0,3.008-2.431,5.439-5.439,5.439
			s-5.439-2.431-5.439-5.439l0,0c0-140.475-30.366-140.475-68.804-140.475s-68.804,0-68.804,140.475l0,0
			c0,3.002-2.431,5.439-5.439,5.439C71.641,229.088,69.204,226.657,69.204,223.649z"/>
	</g>
</g>
<g>
</g>
<g>
</g>
<g>
</g>
<g>
</g>
<g>
</g>
<g>
</g>
<g>
</g>
<g>
</g>
<g>
</g>
<g>
</g>
<g>
</g>
<g>
</g>
<g>
</g>
<g>
</g>
<g>
</g>
</svg>
